<svg data-v-423bf9ae="" xmlns="http://www.w3.org/2000/svg" viewBox="0 0 326 90" class="iconLeftSlogan"><!----><!----><!----><g data-v-423bf9ae="" id="94a9b7b1-e22c-49fc-bafc-c1c851a40689" fill="white" transform="matrix(6.12870278179688,0,0,6.12870278179688,103.7487221314783,-4.9642492082627925)"><path d="M6.23 3.61L6.23 3.61Q6.23 3.02 5.78 2.81Q5.32 2.59 4.26 2.59L4.26 2.59L4.26 4.73Q4.91 4.73 5.33 4.63Q5.74 4.54 5.99 4.29Q6.23 4.05 6.23 3.61ZM6.41 7.35L6.41 7.35Q6.41 6.89 6.17 6.64Q5.94 6.38 5.49 6.28Q5.04 6.17 4.26 6.17L4.26 6.17L4.26 8.60Q5.35 8.60 5.88 8.32Q6.41 8.05 6.41 7.35ZM8.13 5.52L8.13 5.52Q9.44 6.29 9.44 7.57L9.44 7.57Q9.44 8.13 9.22 8.64Q9.00 9.16 8.58 9.58Q8.15 10.00 7.45 10.24Q6.75 10.49 5.87 10.49L5.87 10.49L2.62 10.49Q1.76 10.49 1.39 10.05Q1.02 9.62 1.02 8.50L1.02 8.50L1.02 2.58Q1.02 2.10 1.19 1.74Q1.36 1.37 1.73 1.15Q2.10 0.92 2.62 0.92L2.62 0.92L5.82 0.92Q7.22 0.94 8.15 1.69Q9.09 2.44 9.09 3.61L9.09 3.61Q9.09 3.99 9.02 4.28Q8.96 4.56 8.83 4.79Q8.71 5.01 8.54 5.18Q8.37 5.35 8.13 5.52ZM10.86 1.88L10.86 1.88Q10.86 1.41 11.26 1.11Q11.66 0.81 12.39 0.81L12.39 0.81Q13.92 0.81 13.92 1.88L13.92 1.88Q13.92 2.46 13.53 2.70Q13.15 2.94 12.39 2.94L12.39 2.94Q11.73 2.94 11.30 2.69Q10.86 2.44 10.86 1.88ZM13.90 5.36L13.90 9.00Q13.90 9.84 13.55 10.17Q13.20 10.50 12.32 10.50L12.32 10.50Q11.49 10.50 11.19 10.12Q10.89 9.73 10.89 8.85L10.89 8.85L10.89 5.40Q10.89 4.69 11.28 4.26Q11.66 3.82 12.31 3.82L12.31 3.82Q13.06 3.82 13.48 4.15Q13.90 4.48 13.90 5.36L13.90 5.36ZM15.88 7.50L15.88 7.50L15.88 5.85Q15.53 5.84 15.32 5.73Q15.11 5.63 15.02 5.46Q14.92 5.29 14.92 5.04L14.92 5.04Q14.92 4.24 15.89 4.17L15.89 4.17L15.89 2.87Q15.89 2.34 16.66 1.91Q17.43 1.48 18.19 1.48L18.19 1.48Q18.65 1.48 18.79 1.75Q18.93 2.02 18.93 2.55L18.93 2.55L18.94 4.16L19.32 4.16Q20.09 4.16 20.38 4.36Q20.66 4.56 20.66 5.10L20.66 5.10Q20.66 5.32 20.58 5.47Q20.50 5.63 20.31 5.71Q20.12 5.80 19.85 5.83Q19.59 5.87 19.19 5.87L19.19 5.87L18.94 5.87L18.94 7.41Q18.94 7.63 18.96 7.78Q18.98 7.92 19.03 8.01Q19.07 8.09 19.14 8.12Q19.22 8.15 19.33 8.15L19.33 8.15Q19.50 8.15 19.61 8.03Q19.73 7.91 19.79 7.76Q19.85 7.62 19.96 7.50Q20.06 7.38 20.20 7.38L20.20 7.38Q20.52 7.38 20.70 7.53Q20.87 7.69 20.87 7.91L20.87 7.91Q20.87 8.29 20.73 8.72Q20.58 9.16 20.30 9.56Q20.02 9.97 19.52 10.23Q19.03 10.50 18.41 10.50L18.41 10.50Q17.02 10.50 16.45 9.80Q15.88 9.10 15.88 7.50ZM25.20 6.19L25.20 9.00Q25.20 9.84 24.85 10.17Q24.50 10.50 23.60 10.50L23.60 10.50Q22.78 10.50 22.48 10.12Q22.19 9.73 22.19 8.85L22.19 8.85L22.19 5.40Q22.19 4.93 22.36 4.57Q22.53 4.21 22.85 4.02Q23.17 3.82 23.60 3.82L23.60 3.82Q24.67 3.82 25.00 4.44L25.00 4.44Q25.82 3.82 26.57 3.82L26.57 3.82Q28.04 3.82 28.04 5.22L28.04 5.22Q28.04 5.78 27.72 6.13Q27.40 6.48 26.88 6.48L26.88 6.48Q26.57 6.48 26.38 6.36Q26.19 6.23 26.03 6.10Q25.87 5.98 25.66 5.98L25.66 5.98Q25.35 5.98 25.20 6.19L25.20 6.19ZM33.04 7.18L33.04 7.18Q33.04 6.45 32.86 5.90Q32.68 5.35 32.33 5.35L32.33 5.35Q32.09 5.35 31.91 5.63Q31.72 5.91 31.64 6.31Q31.56 6.72 31.56 7.18L31.56 7.18Q31.56 7.90 31.75 8.44Q31.95 8.97 32.31 8.97Q32.68 8.97 32.86 8.44Q33.04 7.91 33.04 7.18ZM32.31 10.60L32.31 10.60Q31.22 10.60 30.34 10.21Q29.47 9.81 28.95 9.03Q28.42 8.25 28.42 7.20L28.42 7.20Q28.42 5.60 29.51 4.66Q30.60 3.72 32.31 3.72Q34.02 3.72 35.10 4.66Q36.18 5.60 36.18 7.20L36.18 7.20Q36.18 8.78 35.08 9.69Q33.98 10.60 32.31 10.60Z"></path></g><!----><g data-v-423bf9ae="" id="955c29b3-03d2-447f-ab9b-ef117af5ae53" transform="matrix(2.8125,0,0,2.8125,0,0)" stroke="none" fill="white"><path d="M15.965 16.258l.707-.707 10.39 10.39-.707.707z"></path><path d="M4.935 26.357L26.018 5.274l.707.707L5.642 27.065z"></path><path d="M31 1v4.194h-4.194V1H31m1-1h-6.194v6.194H32V0zM31 26.806V31h-4.194v-4.194H31m1-1h-6.194V32H32v-6.194zM5.194 26.806V31H1v-4.194h4.194m1-1H0V32h6.194v-6.194z"></path></g><!----><g data-v-423bf9ae="" id="178c36f7-cc35-4e21-9c20-58123fa72a52" fill="white" transform="matrix(0.553490710054887,0,0,0.553490710054887,110.12192078993584,59.62578664372144)"><path d="M0.44 1.59Q0.77 2.21 0.59 2.91L0.59 2.91Q0.42 3.55-0.14 4.02L-0.14 4.02Q-0.31 4.16-0.12 4.22L-0.12 4.22Q0.03 4.27 0.20 4.25L0.20 4.25Q0.82 4.20 1.18 3.90L1.18 3.90Q1.80 3.38 2.02 2.67L2.02 2.67Q2.26 1.89 1.90 1.20L1.90 1.20Q1.76 0.95 1.05 1.18L1.05 1.18Q0.78 1.27 0.59 1.39L0.59 1.39Q0.40 1.51 0.44 1.59L0.44 1.59ZM2.69 1.59Q3.03 2.21 2.84 2.91L2.84 2.91Q2.67 3.55 2.11 4.02L2.11 4.02Q1.94 4.16 2.14 4.22L2.14 4.22Q2.29 4.27 2.45 4.25L2.45 4.25Q3.08 4.20 3.43 3.90L3.43 3.90Q4.06 3.38 4.28 2.67L4.28 2.67Q4.52 1.89 4.16 1.20L4.16 1.20Q4.02 0.95 3.31 1.18L3.31 1.18Q3.04 1.27 2.85 1.39L2.85 1.39Q2.65 1.51 2.69 1.59L2.69 1.59ZM20.15 5.50Q20.60 4.74 20.81 3.53L20.81 3.53Q21.05 2.15 20.55 1.57L20.55 1.57Q20.26 1.22 19.51 1.27L19.51 1.27Q18.57 1.33 17.68 1.85L17.68 1.85Q16.43 2.59 15.82 4.34L15.82 4.34Q15.20 6.10 15.82 7.18L15.82 7.18Q16.11 7.68 17.49 8.17L17.49 8.17Q18.05 8.37 18.26 8.48L18.26 8.48Q18.70 8.74 18.79 9.11L18.79 9.11Q18.88 9.50 18.54 10.17L18.54 10.17Q18.36 10.51 18.08 10.76L18.08 10.76Q17.96 10.87 17.81 10.97L17.81 10.97Q17.73 11.02 17.71 11.03L17.71 11.03Q17.65 11.07 17.59 11.09L17.59 11.09Q17.68 11.05 17.56 11.10L17.56 11.10Q17.57 11.10 17.63 11.09L17.63 11.09Q17.59 11.09 17.54 11.09L17.54 11.09Q17.53 11.10 17.44 11.09L17.44 11.09Q17.39 11.09 17.24 11.05L17.24 11.05Q16.88 10.97 16.58 10.64L16.58 10.64Q16.37 10.39 16.28 9.93L16.28 9.93Q16.17 9.44 16.40 9.28L16.40 9.28Q16.60 9.13 16.58 9.06L16.58 9.06Q16.55 8.97 16.32 8.96L16.32 8.96Q15.70 8.95 15.29 9.24L15.29 9.24Q14.90 9.53 14.82 9.86L14.82 9.86Q14.74 10.20 14.90 10.62L14.90 10.62Q15.17 11.36 16.04 11.61L16.04 11.61Q16.93 11.87 18.20 11.37L18.20 11.37Q19.21 10.96 19.78 10.24L19.78 10.24Q20.15 9.76 20.24 9.24L20.24 9.24Q20.34 8.62 19.96 8.23L19.96 8.23Q19.69 7.96 19.13 7.75L19.13 7.75Q18.98 7.70 18.67 7.59L18.67 7.59Q18.38 7.50 18.25 7.44L18.25 7.44Q17.71 7.23 17.43 6.97L17.43 6.97Q17.13 6.69 17.03 5.96L17.03 5.96Q16.83 4.53 17.78 2.97L17.78 2.97Q18.20 2.29 18.70 1.95L18.70 1.95Q18.75 1.91 18.85 1.86L18.85 1.86Q18.84 1.86 18.89 1.84L18.89 1.84Q18.88 1.84 18.92 1.83L18.92 1.83Q18.89 1.84 18.94 1.83L18.94 1.83Q18.86 1.85 18.79 1.85L18.79 1.85Q18.81 1.85 18.79 1.85L18.79 1.85L18.81 1.85Q18.87 1.86 18.95 1.89L18.95 1.89Q18.96 1.89 19.06 1.96L19.06 1.96Q19.13 2.01 19.17 2.06L19.17 2.06Q19.28 2.20 19.35 2.45L19.35 2.45Q19.47 2.84 19.41 3.49L19.41 3.49Q19.28 4.81 18.71 5.76L18.71 5.76Q18.62 5.90 18.93 5.91L18.93 5.91Q19.13 5.92 19.29 5.89L19.29 5.89Q19.99 5.76 20.15 5.50L20.15 5.50ZM32.09 1.42Q31.38 1.19 30.20 1.57L30.20 1.57Q28.69 2.06 28.13 3.77L28.13 3.77Q27.78 4.83 27.96 6.11L27.96 6.11Q28.05 6.76 28.31 7.16L28.31 7.16Q27.90 7.38 27.60 7.70L27.60 7.70Q26.61 8.80 26.71 10.01L26.71 10.01Q26.78 10.70 27.26 11.11L27.26 11.11Q27.66 11.44 28.49 11.42L28.49 11.42Q29.32 11.39 30.02 10.95L30.02 10.95Q30.78 10.49 31.08 9.76L31.08 9.76Q31.14 9.61 30.86 9.60L30.86 9.60Q30.69 9.59 30.50 9.63L30.50 9.63Q29.74 9.76 29.64 10.02L29.64 10.02Q29.44 10.51 29.09 10.80L29.09 10.80Q29.08 10.81 29.07 10.82L29.07 10.82Q29.02 10.81 29.01 10.81L29.01 10.81Q28.94 10.79 28.86 10.75L28.86 10.75Q28.70 10.68 28.54 10.52L28.54 10.52Q28.25 10.23 28.18 9.63L28.18 9.63Q28.08 8.83 28.71 7.86L28.71 7.86Q28.79 7.74 28.90 7.62L28.90 7.62Q29.11 7.70 29.38 7.72L29.38 7.72Q29.78 7.74 30.28 7.51L30.28 7.51Q30.69 7.32 30.54 7.18L30.54 7.18Q30.26 6.90 29.83 6.84L29.83 6.84Q29.79 6.79 29.76 6.75L29.76 6.75Q29.55 6.45 29.44 5.89L29.44 5.89Q29.25 4.89 29.44 4.00L29.44 4.00Q29.70 2.70 30.47 2.04L30.47 2.04Q30.52 2.00 30.62 1.93L30.62 1.93Q30.63 1.93 30.63 1.93L30.63 1.93Q30.75 1.94 30.73 1.93L30.73 1.93Q31.32 2.02 31.20 2.62L31.20 2.62Q31.15 2.86 31.78 2.75L31.78 2.75Q32.09 2.69 32.34 2.58L32.34 2.58Q32.62 2.45 32.64 2.36L32.64 2.36Q32.78 1.63 32.09 1.42L32.09 1.42ZM43.57 1.54Q43.14 0.91 41.96 1.20L41.96 1.20Q41.00 1.43 40.36 2.14L40.36 2.14Q39.35 3.26 38.92 5.40L38.92 5.40Q38.62 6.86 38.53 8.67L38.53 8.67Q38.51 9.98 38.65 10.47L38.65 10.47Q38.92 11.44 40.01 11.50L40.01 11.50Q40.63 11.53 41.22 11.27L41.22 11.27Q41.82 10.99 42.18 10.51L42.18 10.51Q42.56 10.02 42.90 8.89L42.90 8.89Q42.97 8.64 42.31 8.76L42.31 8.76Q42.01 8.81 41.76 8.93L41.76 8.93Q41.49 9.06 41.46 9.15L41.46 9.15Q41.21 9.99 40.94 10.48L40.94 10.48Q40.82 10.68 40.69 10.83L40.69 10.83Q40.13 10.58 40.00 9.66L40.00 9.66Q39.98 9.42 39.99 8.20L39.99 8.20Q40.09 6.41 40.40 4.92L40.40 4.92Q40.87 2.75 41.90 1.80L41.90 1.80Q41.91 1.79 41.94 1.76L41.94 1.76Q42.30 2.01 42.40 2.75L42.40 2.75Q42.47 3.36 42.26 4.29L42.26 4.29Q41.92 5.76 41.92 5.80L41.92 5.80Q41.90 5.92 42.28 5.89L42.28 5.89Q42.54 5.87 42.70 5.82L42.70 5.82Q43.34 5.65 43.38 5.41L43.38 5.41Q43.43 5.07 43.59 4.41L43.59 4.41Q43.75 3.74 43.80 3.40L43.80 3.40Q44.00 2.17 43.57 1.54L43.57 1.54ZM54.92 2.21Q54.28 2.38 54.25 2.63L54.25 2.63Q54.20 3.01 54.04 4.51L54.04 4.51Q53.92 5.69 53.78 6.41L53.78 6.41Q53.38 8.57 52.27 9.83L52.27 9.83Q52.12 10.00 52.01 10.12L52.01 10.12Q51.75 9.61 51.71 8.40L51.71 8.40Q51.66 6.90 52.58 4.58L52.58 4.58Q53.27 2.88 53.43 2.40L53.43 2.40Q53.52 2.15 52.85 2.26L52.85 2.26Q52.08 2.41 51.99 2.66L51.99 2.66Q51.82 3.12 51.27 4.53L51.27 4.53Q50.80 5.71 50.59 6.43L50.59 6.43Q49.93 8.66 50.50 10.36L50.50 10.36Q50.60 10.68 50.80 10.83L50.80 10.83Q51.03 11.03 51.67 10.92L51.67 10.92Q52.68 10.73 53.59 9.71L53.59 9.71Q54.76 8.41 55.19 6.34L55.19 6.34Q55.35 5.55 55.49 4.29L55.49 4.29Q55.67 2.58 55.71 2.24L55.71 2.24Q55.73 2.11 55.34 2.14L55.34 2.14Q55.09 2.16 54.92 2.21L54.92 2.21ZM66.15 5.31Q66.00 6.24 65.11 7.18L65.11 7.18Q64.91 7.38 64.67 7.58L64.67 7.58Q64.61 7.63 64.55 7.68L64.55 7.68Q64.33 7.59 64.08 7.58L64.08 7.58Q64.64 4.74 64.78 2.66L64.78 2.66Q65.05 2.80 65.29 2.99L65.29 2.99Q65.80 3.39 66.04 4.03L66.04 4.03Q66.26 4.65 66.15 5.31L66.15 5.31ZM63.18 2.40Q63.18 2.40 63.19 2.39L63.19 2.39Q63.18 2.40 63.18 2.40L63.18 2.40ZM68.11 11.42Q67.38 10.88 65.85 8.99L65.85 8.99Q65.18 8.17 65.06 8.05L65.06 8.05Q65.52 7.84 65.95 7.50L65.95 7.50Q67.16 6.56 67.51 5.41L67.51 5.41Q67.76 4.60 67.55 3.84L67.55 3.84Q67.34 3.07 66.72 2.53L66.72 2.53Q65.47 1.46 63.40 1.88L63.40 1.88Q63.27 1.91 63.08 1.96L63.08 1.96Q62.34 2.14 62.40 2.37L62.40 2.37Q62.46 2.58 63.17 2.40L63.17 2.40Q63.24 2.39 63.29 2.38L63.29 2.38Q63.33 2.37 63.36 2.37L63.36 2.37Q63.25 5.11 62.01 10.79L62.01 10.79Q61.95 11.04 62.59 10.92L62.59 10.92Q62.90 10.87 63.15 10.75L63.15 10.75Q63.43 10.62 63.45 10.53L63.45 10.53Q63.75 9.17 63.84 8.72L63.84 8.72Q63.85 8.72 63.85 8.72L63.85 8.72Q63.85 8.72 63.85 8.72L63.85 8.72Q63.96 8.85 64.65 9.70L64.65 9.70Q65.97 11.34 66.73 11.92L66.73 11.92Q66.96 12.09 67.68 11.83L67.68 11.83Q67.86 11.76 68.00 11.67L68.00 11.67Q68.25 11.52 68.11 11.42L68.11 11.42ZM79.21 1.42Q78.50 1.19 77.31 1.57L77.31 1.57Q75.80 2.06 75.24 3.77L75.24 3.77Q74.89 4.83 75.07 6.11L75.07 6.11Q75.16 6.76 75.43 7.16L75.43 7.16Q75.01 7.38 74.72 7.70L74.72 7.70Q73.72 8.80 73.83 10.01L73.83 10.01Q73.90 10.70 74.38 11.11L74.38 11.11Q74.77 11.44 75.60 11.42L75.60 11.42Q76.43 11.39 77.14 10.95L77.14 10.95Q77.89 10.49 78.19 9.76L78.19 9.76Q78.25 9.61 77.97 9.60L77.97 9.60Q77.80 9.59 77.61 9.63L77.61 9.63Q76.86 9.76 76.75 10.02L76.75 10.02Q76.56 10.51 76.21 10.80L76.21 10.80Q76.19 10.81 76.18 10.82L76.18 10.82Q76.13 10.81 76.13 10.81L76.13 10.81Q76.06 10.79 75.97 10.75L75.97 10.75Q75.81 10.68 75.65 10.52L75.65 10.52Q75.37 10.23 75.29 9.63L75.29 9.63Q75.20 8.83 75.82 7.86L75.82 7.86Q75.91 7.74 76.01 7.62L76.01 7.62Q76.22 7.70 76.49 7.72L76.49 7.72Q76.90 7.74 77.39 7.51L77.39 7.51Q77.81 7.32 77.66 7.18L77.66 7.18Q77.37 6.90 76.95 6.84L76.95 6.84Q76.90 6.79 76.87 6.75L76.87 6.75Q76.67 6.45 76.56 5.89L76.56 5.89Q76.36 4.89 76.55 4.00L76.55 4.00Q76.82 2.70 77.58 2.04L77.58 2.04Q77.64 2.00 77.73 1.93L77.73 1.93Q77.74 1.93 77.74 1.93L77.74 1.93Q77.87 1.94 77.85 1.93L77.85 1.93Q78.43 2.02 78.31 2.62L78.31 2.62Q78.26 2.86 78.89 2.75L78.89 2.75Q79.20 2.69 79.45 2.58L79.45 2.58Q79.73 2.45 79.75 2.36L79.75 2.36Q79.89 1.63 79.21 1.42L79.21 1.42ZM101.41 1.12Q101.38 0.90 100.64 1.07L100.64 1.07Q99.91 1.25 99.95 1.51L99.95 1.51Q100.13 2.73 99.91 4.12L99.91 4.12Q99.64 5.76 98.89 6.75L98.89 6.75Q98.74 6.95 98.49 7.16L98.49 7.16Q98.42 7.23 98.31 7.29L98.31 7.29Q98.31 7.29 98.23 7.34L98.23 7.34L98.23 7.34Q98.23 7.34 98.23 7.34L98.23 7.34Q98.15 7.36 98.08 7.38L98.08 7.38L98.08 7.37Q98.07 7.37 98.06 7.37L98.06 7.37Q98.03 7.36 97.96 7.35L97.96 7.35Q97.95 7.35 97.92 7.33L97.92 7.33Q97.92 7.33 97.90 7.33L97.90 7.33Q97.30 7.06 97.31 5.83L97.31 5.83Q97.31 4.47 98.27 1.59L98.27 1.59Q98.36 1.34 97.69 1.46L97.69 1.46Q96.91 1.60 96.83 1.85L96.83 1.85Q95.96 4.44 95.86 5.87L95.86 5.87Q95.76 7.12 96.28 7.65L96.28 7.65Q96.55 7.94 97.16 7.96L97.16 7.96Q97.30 7.97 97.46 7.96L97.46 7.96Q97.41 8.59 96.88 10.68L96.88 10.68Q96.82 10.94 97.46 10.82L97.46 10.82Q97.77 10.77 98.02 10.65L98.02 10.65Q98.30 10.52 98.32 10.42L98.32 10.42Q98.86 8.28 98.92 7.59L98.92 7.59Q98.96 7.57 98.97 7.57L98.97 7.57Q100.56 6.90 101.17 4.67L101.17 4.67Q101.68 2.84 101.41 1.12L101.41 1.12ZM111.09 5.20Q110.97 6.64 110.70 7.92L110.70 7.92Q110.29 9.88 109.52 10.64L109.52 10.64Q109.43 10.55 109.35 10.38L109.35 10.38Q109.17 9.97 109.18 9.03L109.18 9.03Q109.21 7.34 109.79 5.48L109.79 5.48Q110.28 3.85 110.98 3.01L110.98 3.01Q111.06 3.25 111.10 3.62L111.10 3.62Q111.17 4.21 111.09 5.20L111.09 5.20ZM112.02 1.96Q111.82 1.79 111.08 2.05L111.08 2.05Q110.58 2.24 110.60 2.39L110.60 2.39Q110.35 2.48 110.17 2.63L110.17 2.63Q109.18 3.40 108.52 5.22L108.52 5.22Q107.97 6.70 107.78 8.50L107.78 8.50Q107.70 9.28 107.73 9.92L107.73 9.92Q107.77 10.77 108.13 11.13L108.13 11.13Q108.32 11.31 108.75 11.33L108.75 11.33Q109.29 11.36 110.11 11.02L110.11 11.02Q110.80 10.74 111.32 9.94L111.32 9.94Q111.79 9.21 112.10 7.85L112.10 7.85Q112.31 6.94 112.44 5.84L112.44 5.84Q112.60 4.44 112.60 3.78L112.60 3.78Q112.59 2.45 112.02 1.96L112.02 1.96ZM123.92 2.21Q123.28 2.38 123.25 2.63L123.25 2.63Q123.19 3.01 123.03 4.51L123.03 4.51Q122.91 5.69 122.77 6.41L122.77 6.41Q122.37 8.57 121.27 9.83L121.27 9.83Q121.12 10.00 121.01 10.12L121.01 10.12Q120.75 9.61 120.71 8.40L120.71 8.40Q120.65 6.90 121.58 4.58L121.58 4.58Q122.26 2.88 122.42 2.40L122.42 2.40Q122.51 2.15 121.84 2.26L121.84 2.26Q121.07 2.41 120.98 2.66L120.98 2.66Q120.82 3.12 120.26 4.53L120.26 4.53Q119.80 5.71 119.59 6.43L119.59 6.43Q118.92 8.66 119.49 10.36L119.49 10.36Q119.59 10.68 119.79 10.83L119.79 10.83Q120.03 11.03 120.67 10.92L120.67 10.92Q121.68 10.73 122.59 9.71L122.59 9.71Q123.76 8.41 124.19 6.34L124.19 6.34Q124.35 5.55 124.48 4.29L124.48 4.29Q124.66 2.58 124.71 2.24L124.71 2.24Q124.72 2.11 124.34 2.14L124.34 2.14Q124.09 2.16 123.92 2.21L123.92 2.21ZM135.15 5.31Q135.00 6.24 134.10 7.18L134.10 7.18Q133.91 7.38 133.67 7.58L133.67 7.58Q133.61 7.63 133.55 7.68L133.55 7.68Q133.33 7.59 133.08 7.58L133.08 7.58Q133.64 4.74 133.78 2.66L133.78 2.66Q134.05 2.80 134.29 2.99L134.29 2.99Q134.80 3.39 135.03 4.03L135.03 4.03Q135.26 4.65 135.15 5.31L135.15 5.31ZM132.17 2.40Q132.17 2.40 132.19 2.39L132.19 2.39Q132.18 2.40 132.17 2.40L132.17 2.40ZM137.11 11.42Q136.38 10.88 134.85 8.99L134.85 8.99Q134.18 8.17 134.06 8.05L134.06 8.05Q134.52 7.84 134.95 7.50L134.95 7.50Q136.15 6.56 136.51 5.41L136.51 5.41Q136.75 4.60 136.55 3.84L136.55 3.84Q136.34 3.07 135.71 2.53L135.71 2.53Q134.47 1.46 132.40 1.88L132.40 1.88Q132.27 1.91 132.07 1.96L132.07 1.96Q131.33 2.14 131.39 2.37L131.39 2.37Q131.46 2.58 132.17 2.40L132.17 2.40Q132.23 2.39 132.28 2.38L132.28 2.38Q132.32 2.37 132.36 2.37L132.36 2.37Q132.24 5.11 131.00 10.79L131.00 10.79Q130.95 11.04 131.58 10.92L131.58 10.92Q131.89 10.87 132.15 10.75L132.15 10.75Q132.43 10.62 132.45 10.53L132.45 10.53Q132.74 9.17 132.84 8.72L132.84 8.72Q132.84 8.72 132.84 8.72L132.84 8.72Q132.85 8.72 132.85 8.72L132.85 8.72Q132.96 8.85 133.64 9.70L133.64 9.70Q134.96 11.34 135.73 11.92L135.73 11.92Q135.95 12.09 136.67 11.83L136.67 11.83Q136.86 11.76 137.00 11.67L137.00 11.67Q137.25 11.52 137.11 11.42L137.11 11.42ZM158.37 3.48Q158.33 1.70 157.48 1.01L157.48 1.01Q157.01 0.64 156.12 0.68L156.12 0.68Q155.12 0.72 153.87 1.40L153.87 1.40Q153.69 1.50 153.72 1.60L153.72 1.60Q153.75 1.70 153.95 1.71L153.95 1.71Q154.45 1.72 154.98 1.44L154.98 1.44Q155.00 1.43 155.02 1.42L155.02 1.42Q155.06 1.39 155.14 1.35L155.14 1.35Q155.18 1.34 155.26 1.31L155.26 1.31Q155.29 1.29 155.39 1.26L155.39 1.26L155.40 1.26Q155.41 1.25 155.41 1.26L155.41 1.26Q155.42 1.25 155.44 1.25L155.44 1.25Q155.47 1.25 155.51 1.26L155.51 1.26Q155.52 1.26 155.54 1.26L155.54 1.26Q155.59 1.26 155.59 1.26L155.59 1.26Q155.67 1.28 155.77 1.31L155.77 1.31Q155.78 1.31 155.78 1.31L155.78 1.31Q155.78 1.31 155.78 1.31L155.78 1.31Q155.81 1.33 155.86 1.35L155.86 1.35Q155.91 1.37 156.00 1.43L156.00 1.43Q156.13 1.51 156.26 1.65L156.26 1.65Q156.45 1.85 156.61 2.23L156.61 2.23Q157.21 3.66 156.67 6.11L156.67 6.11Q156.32 7.70 155.61 8.97L155.61 8.97Q155.26 9.60 154.85 10.03L154.85 10.03Q154.68 10.22 154.46 10.39L154.46 10.39Q155.55 5.68 156.02 1.78L156.02 1.78Q156.02 1.71 155.80 1.70L155.80 1.70Q155.59 1.69 155.31 1.74L155.31 1.74Q154.59 1.87 154.55 2.17L154.55 2.17Q154.08 6.19 152.91 11.16L152.91 11.16Q152.84 11.42 153.49 11.30L153.49 11.30Q153.79 11.25 154.04 11.12L154.04 11.12Q154.24 11.03 154.30 10.97L154.30 10.97Q154.57 10.93 154.95 10.77L154.95 10.77Q156.52 10.12 157.50 7.78L157.50 7.78Q158.41 5.63 158.37 3.48L158.37 3.48ZM166.30 2.53Q166.06 3.62 165.44 6.79L165.44 6.79Q165.20 8.03 165.01 8.93L165.01 8.93Q164.62 10.78 164.62 10.91L164.62 10.91Q164.62 10.99 164.84 11.00L164.84 11.00Q165.06 11.01 165.34 10.96L165.34 10.96Q166.07 10.81 166.08 10.52L166.08 10.52Q166.09 10.23 166.24 9.62L166.24 9.62Q166.32 9.32 166.48 8.57L166.48 8.57Q166.65 7.77 166.91 6.44L166.91 6.44Q167.50 3.36 167.75 2.27L167.75 2.27Q167.80 2.02 167.16 2.13L167.16 2.13Q166.86 2.19 166.61 2.31L166.61 2.31Q166.33 2.44 166.30 2.53L166.30 2.53ZM177.52 7.83L177.52 7.83Q177.54 7.83 177.56 7.81L177.56 7.81Q177.54 7.83 177.52 7.83L177.52 7.83ZM179.08 1.67Q178.71 0.90 177.35 1.50L177.35 1.50Q176.78 1.75 176.22 2.55L176.22 2.55Q175.75 3.20 175.33 4.06L175.33 4.06Q174.41 5.91 174.13 8.21L174.13 8.21Q174.01 9.15 174.00 9.80L174.00 9.80Q173.97 10.74 174.41 11.05L174.41 11.05Q174.86 11.39 176.00 11.00L176.00 11.00Q176.65 10.77 177.24 10.19L177.24 10.19Q177.75 9.71 178.07 8.87L178.07 8.87Q178.21 8.48 178.27 8.11L178.27 8.11Q178.33 7.72 178.23 7.57L178.23 7.57Q178.05 7.29 177.38 7.43L177.38 7.43Q176.65 7.58 176.04 8.07L176.04 8.07Q175.86 8.21 176.07 8.27L176.07 8.27Q176.22 8.31 176.38 8.30L176.38 8.30Q176.61 8.28 176.84 8.21L176.84 8.21Q176.85 8.48 176.66 9.04L176.66 9.04Q176.47 9.59 176.21 9.99L176.21 9.99Q176.16 10.06 176.13 10.08L176.13 10.08Q176.03 10.21 175.93 10.31L175.93 10.31Q175.84 10.40 175.71 10.51L175.71 10.51Q175.66 10.45 175.61 10.36L175.61 10.36Q175.49 10.13 175.46 9.65L175.46 9.65Q175.44 9.36 175.55 8.16L175.55 8.16Q175.74 5.98 176.69 3.95L176.69 3.95Q177.21 2.84 177.69 2.21L177.69 2.21Q177.81 2.51 177.82 2.81L177.82 2.81Q177.84 3.19 177.65 3.34L177.65 3.34Q177.47 3.47 177.68 3.53L177.68 3.53Q177.83 3.58 177.99 3.57L177.99 3.57Q178.59 3.51 178.96 3.22L178.96 3.22Q179.27 2.98 179.27 2.48L179.27 2.48Q179.27 2.06 179.08 1.67L179.08 1.67ZM187.09 2.53Q186.84 3.62 186.22 6.79L186.22 6.79Q185.99 8.03 185.79 8.93L185.79 8.93Q185.40 10.78 185.40 10.91L185.40 10.91Q185.40 10.99 185.62 11.00L185.62 11.00Q185.84 11.01 186.12 10.96L186.12 10.96Q186.85 10.81 186.86 10.52L186.86 10.52Q186.87 10.23 187.02 9.62L187.02 9.62Q187.10 9.32 187.26 8.57L187.26 8.57Q187.43 7.77 187.69 6.44L187.69 6.44Q188.28 3.36 188.53 2.27L188.53 2.27Q188.58 2.02 187.94 2.13L187.94 2.13Q187.64 2.19 187.39 2.31L187.39 2.31Q187.11 2.44 187.09 2.53L187.09 2.53ZM200.03 2.35Q199.07 2.17 198.06 2.15L198.06 2.15Q197.97 2.03 197.49 2.11L197.49 2.11Q197.39 2.13 197.28 2.16L197.28 2.16Q196.21 2.22 195.17 2.46L195.17 2.46Q194.43 2.63 194.50 2.88L194.50 2.88Q194.55 3.08 195.28 2.91L195.28 2.91Q195.28 2.91 195.30 2.90L195.30 2.90Q195.31 2.90 195.32 2.89L195.32 2.89Q195.40 2.88 195.56 2.85L195.56 2.85Q195.72 2.82 195.95 2.80L195.95 2.80Q196.23 2.76 196.56 2.75L196.56 2.75Q195.15 7.40 194.75 10.96L194.75 10.96Q194.74 11.02 194.97 11.03L194.97 11.03Q195.18 11.04 195.46 10.99L195.46 10.99Q196.18 10.86 196.21 10.56L196.21 10.56Q196.59 7.19 197.91 2.78L197.91 2.78Q198.38 2.82 198.82 2.91L198.82 2.91Q199.25 2.99 199.84 2.72L199.84 2.72Q200.00 2.65 200.09 2.54L200.09 2.54Q200.24 2.39 200.03 2.35L200.03 2.35ZM208.60 7.89Q208.50 7.90 207.59 7.84L207.59 7.84Q208.00 6.63 208.46 5.57L208.46 5.57Q208.63 5.18 209.17 3.95L209.17 3.95Q209.15 4.61 208.97 7.85L208.97 7.85Q208.80 7.87 208.60 7.89L208.60 7.89ZM210.41 1.18Q210.23 1.09 209.84 1.16L209.84 1.16Q209.20 1.27 208.99 1.55L208.99 1.55Q208.79 1.80 208.01 3.58L208.01 3.58Q207.87 3.90 207.51 4.70L207.51 4.70Q207.20 5.42 207.02 5.83L207.02 5.83Q206.60 6.79 206.23 7.86L206.23 7.86Q205.30 7.97 204.65 8.37L204.65 8.37Q204.48 8.48 204.50 8.58L204.50 8.58Q204.53 8.67 204.74 8.68L204.74 8.68Q205.26 8.70 205.73 8.43L205.73 8.43Q205.87 8.41 205.92 8.41L205.92 8.41Q205.98 8.41 206.04 8.41L206.04 8.41Q205.72 9.39 205.40 10.53L205.40 10.53Q205.33 10.79 205.99 10.67L205.99 10.67Q206.29 10.62 206.54 10.49L206.54 10.49Q206.81 10.37 206.84 10.27L206.84 10.27Q207.11 9.32 207.38 8.48L207.38 8.48Q207.68 8.50 207.87 8.47L207.87 8.47Q208.58 8.39 208.93 8.46L208.93 8.46Q208.82 10.55 208.82 12.02L208.82 12.02Q208.82 12.10 209.05 12.11L209.05 12.11Q209.27 12.12 209.56 12.06L209.56 12.06Q210.29 11.91 210.29 11.62L210.29 11.62Q210.29 9.90 210.49 6.45L210.49 6.45Q210.69 3.00 210.69 1.27L210.69 1.27Q210.69 1.18 210.41 1.18L210.41 1.18ZM220.54 11.33Q219.50 11.36 219.06 11.16L219.06 11.16Q219.91 6.57 221.03 2.08L221.03 2.08Q221.09 1.83 220.45 1.95L220.45 1.95Q220.14 2.00 219.89 2.12L219.89 2.12Q219.61 2.25 219.59 2.34L219.59 2.34Q218.47 6.83 217.61 11.47L217.61 11.47Q217.52 11.56 217.59 11.61L217.59 11.61Q217.59 11.63 217.58 11.70L217.58 11.70Q217.57 11.74 217.57 11.78L217.57 11.78Q217.55 11.94 218.19 11.83L218.19 11.83Q218.68 11.95 219.59 11.92L219.59 11.92Q220.20 11.91 220.62 11.65L220.62 11.65Q220.80 11.54 220.78 11.44L220.78 11.44Q220.75 11.33 220.54 11.33L220.54 11.33ZM243.74 1.59Q242.63 1.45 240.95 1.75L240.95 1.75Q240.96 1.74 240.97 1.70L240.97 1.70Q240.98 1.66 240.98 1.64L240.98 1.64Q241.05 1.39 240.40 1.50L240.40 1.50Q240.10 1.56 239.85 1.67L239.85 1.67Q239.57 1.80 239.54 1.90L239.54 1.90Q239.55 1.88 239.50 2.08L239.50 2.08Q239.31 2.18 239.24 2.30L239.24 2.30Q239.18 2.43 239.39 2.45L239.39 2.45Q238.12 7.25 237.62 10.98L237.62 10.98Q237.60 11.10 237.99 11.07L237.99 11.07Q238.24 11.05 238.41 11.00L238.41 11.00Q239.05 10.83 239.08 10.59L239.08 10.59Q239.30 8.95 239.66 7.16L239.66 7.16Q239.59 7.17 240.65 7.09L240.65 7.09Q241.29 7.05 241.63 6.75L241.63 6.75Q241.79 6.60 241.60 6.54L241.60 6.54Q241.47 6.50 241.29 6.51L241.29 6.51Q240.16 6.60 239.76 6.66L239.76 6.66Q240.18 4.65 240.82 2.24L240.82 2.24Q241.84 2.06 242.53 2.15L242.53 2.15Q243.01 2.21 243.55 1.96L243.55 1.96Q243.69 1.89 243.80 1.78L243.80 1.78Q243.95 1.62 243.74 1.59L243.74 1.59ZM253.52 2.21Q252.88 2.38 252.85 2.63L252.85 2.63Q252.79 3.01 252.64 4.51L252.64 4.51Q252.51 5.69 252.38 6.41L252.38 6.41Q251.97 8.57 250.87 9.83L250.87 9.83Q250.72 10.00 250.61 10.12L250.61 10.12Q250.35 9.61 250.31 8.40L250.31 8.40Q250.26 6.90 251.18 4.58L251.18 4.58Q251.86 2.88 252.03 2.40L252.03 2.40Q252.12 2.15 251.45 2.26L251.45 2.26Q250.67 2.41 250.58 2.66L250.58 2.66Q250.42 3.12 249.87 4.53L249.87 4.53Q249.40 5.71 249.19 6.43L249.19 6.43Q248.53 8.66 249.09 10.36L249.09 10.36Q249.20 10.68 249.40 10.83L249.40 10.83Q249.63 11.03 250.27 10.92L250.27 10.92Q251.28 10.73 252.19 9.71L252.19 9.71Q253.36 8.41 253.79 6.34L253.79 6.34Q253.95 5.55 254.08 4.29L254.08 4.29Q254.26 2.58 254.31 2.24L254.31 2.24Q254.32 2.11 253.94 2.14L253.94 2.14Q253.69 2.16 253.52 2.21L253.52 2.21ZM265.67 2.35Q264.71 2.17 263.70 2.15L263.70 2.15Q263.61 2.03 263.13 2.11L263.13 2.11Q263.03 2.13 262.92 2.16L262.92 2.16Q261.85 2.22 260.81 2.46L260.81 2.46Q260.07 2.63 260.14 2.88L260.14 2.88Q260.19 3.08 260.91 2.91L260.91 2.91Q260.92 2.91 260.93 2.90L260.93 2.90Q260.95 2.90 260.96 2.89L260.96 2.89Q261.04 2.88 261.19 2.85L261.19 2.85Q261.36 2.82 261.58 2.80L261.58 2.80Q261.87 2.76 262.20 2.75L262.20 2.75Q260.78 7.40 260.39 10.96L260.39 10.96Q260.38 11.02 260.61 11.03L260.61 11.03Q260.82 11.04 261.10 10.99L261.10 10.99Q261.82 10.86 261.85 10.56L261.85 10.56Q262.23 7.19 263.55 2.78L263.55 2.78Q264.02 2.82 264.46 2.91L264.46 2.91Q264.89 2.99 265.48 2.72L265.48 2.72Q265.64 2.65 265.73 2.54L265.73 2.54Q265.88 2.39 265.67 2.35L265.67 2.35ZM275.89 2.21Q275.26 2.38 275.22 2.63L275.22 2.63Q275.17 3.01 275.01 4.51L275.01 4.51Q274.89 5.69 274.75 6.41L274.75 6.41Q274.35 8.57 273.25 9.83L273.25 9.83Q273.10 10.00 272.99 10.12L272.99 10.12Q272.73 9.61 272.69 8.40L272.69 8.40Q272.63 6.90 273.55 4.58L273.55 4.58Q274.24 2.88 274.40 2.40L274.40 2.40Q274.49 2.15 273.82 2.26L273.82 2.26Q273.05 2.41 272.96 2.66L272.96 2.66Q272.79 3.12 272.24 4.53L272.24 4.53Q271.78 5.71 271.56 6.43L271.56 6.43Q270.90 8.66 271.47 10.36L271.47 10.36Q271.57 10.68 271.77 10.83L271.77 10.83Q272.00 11.03 272.64 10.92L272.64 10.92Q273.66 10.73 274.57 9.71L274.57 9.71Q275.73 8.41 276.17 6.34L276.17 6.34Q276.32 5.55 276.46 4.29L276.46 4.29Q276.64 2.58 276.68 2.24L276.68 2.24Q276.70 2.11 276.32 2.14L276.32 2.14Q276.06 2.16 275.89 2.21L275.89 2.21ZM287.12 5.31Q286.97 6.24 286.08 7.18L286.08 7.18Q285.89 7.38 285.65 7.58L285.65 7.58Q285.58 7.63 285.52 7.68L285.52 7.68Q285.30 7.59 285.05 7.58L285.05 7.58Q285.61 4.74 285.76 2.66L285.76 2.66Q286.02 2.80 286.26 2.99L286.26 2.99Q286.77 3.39 287.01 4.03L287.01 4.03Q287.23 4.65 287.12 5.31L287.12 5.31ZM284.15 2.40Q284.15 2.40 284.16 2.39L284.16 2.39Q284.16 2.40 284.15 2.40L284.15 2.40ZM289.08 11.42Q288.35 10.88 286.82 8.99L286.82 8.99Q286.15 8.17 286.04 8.05L286.04 8.05Q286.49 7.84 286.92 7.50L286.92 7.50Q288.13 6.56 288.48 5.41L288.48 5.41Q288.73 4.60 288.52 3.84L288.52 3.84Q288.31 3.07 287.69 2.53L287.69 2.53Q286.45 1.46 284.38 1.88L284.38 1.88Q284.25 1.91 284.05 1.96L284.05 1.96Q283.31 2.14 283.37 2.37L283.37 2.37Q283.43 2.58 284.14 2.40L284.14 2.40Q284.21 2.39 284.26 2.38L284.26 2.38Q284.30 2.37 284.33 2.37L284.33 2.37Q284.22 5.11 282.98 10.79L282.98 10.79Q282.93 11.04 283.56 10.92L283.56 10.92Q283.87 10.87 284.12 10.75L284.12 10.75Q284.40 10.62 284.42 10.53L284.42 10.53Q284.72 9.17 284.81 8.72L284.81 8.72Q284.82 8.72 284.82 8.72L284.82 8.72Q284.83 8.72 284.83 8.72L284.83 8.72Q284.94 8.85 285.62 9.70L285.62 9.70Q286.94 11.34 287.70 11.92L287.70 11.92Q287.93 12.09 288.65 11.83L288.65 11.83Q288.83 11.76 288.98 11.67L288.98 11.67Q289.22 11.52 289.08 11.42L289.08 11.42ZM300.18 1.42Q299.47 1.19 298.29 1.57L298.29 1.57Q296.78 2.06 296.21 3.77L296.21 3.77Q295.87 4.83 296.04 6.11L296.04 6.11Q296.13 6.76 296.40 7.16L296.40 7.16Q295.98 7.38 295.69 7.70L295.69 7.70Q294.69 8.80 294.80 10.01L294.80 10.01Q294.87 10.70 295.35 11.11L295.35 11.11Q295.74 11.44 296.57 11.42L296.57 11.42Q297.40 11.39 298.11 10.95L298.11 10.95Q298.86 10.49 299.16 9.76L299.16 9.76Q299.22 9.61 298.94 9.60L298.94 9.60Q298.77 9.59 298.58 9.63L298.58 9.63Q297.83 9.76 297.73 10.02L297.73 10.02Q297.53 10.51 297.18 10.80L297.18 10.80Q297.17 10.81 297.15 10.82L297.15 10.82Q297.10 10.81 297.10 10.81L297.10 10.81Q297.03 10.79 296.95 10.75L296.95 10.75Q296.78 10.68 296.63 10.52L296.63 10.52Q296.34 10.23 296.26 9.63L296.26 9.63Q296.17 8.83 296.80 7.86L296.80 7.86Q296.88 7.74 296.98 7.62L296.98 7.62Q297.19 7.70 297.47 7.72L297.47 7.72Q297.87 7.74 298.36 7.51L298.36 7.51Q298.78 7.32 298.63 7.18L298.63 7.18Q298.34 6.90 297.92 6.84L297.92 6.84Q297.88 6.79 297.84 6.75L297.84 6.75Q297.64 6.45 297.53 5.89L297.53 5.89Q297.34 4.89 297.52 4.00L297.52 4.00Q297.79 2.70 298.55 2.04L298.55 2.04Q298.61 2.00 298.70 1.93L298.70 1.93Q298.71 1.93 298.71 1.93L298.71 1.93Q298.84 1.94 298.82 1.93L298.82 1.93Q299.40 2.02 299.28 2.62L299.28 2.62Q299.24 2.86 299.87 2.75L299.87 2.75Q300.17 2.69 300.43 2.58L300.43 2.58Q300.71 2.45 300.73 2.36L300.73 2.36Q300.86 1.63 300.18 1.42L300.18 1.42ZM307.30 1.59Q307.64 2.21 307.45 2.91L307.45 2.91Q307.28 3.55 306.72 4.02L306.72 4.02Q306.55 4.16 306.75 4.22L306.75 4.22Q306.90 4.27 307.06 4.25L307.06 4.25Q307.69 4.20 308.04 3.90L308.04 3.90Q308.67 3.38 308.89 2.67L308.89 2.67Q309.13 1.89 308.77 1.20L308.77 1.20Q308.63 0.95 307.92 1.18L307.92 1.18Q307.64 1.27 307.46 1.39L307.46 1.39Q307.26 1.51 307.30 1.59L307.30 1.59ZM309.56 1.59Q309.89 2.21 309.71 2.91L309.71 2.91Q309.54 3.55 308.98 4.02L308.98 4.02Q308.81 4.16 309.00 4.22L309.00 4.22Q309.16 4.27 309.32 4.25L309.32 4.25Q309.94 4.20 310.30 3.90L310.30 3.90Q310.93 3.38 311.14 2.67L311.14 2.67Q311.38 1.89 311.02 1.20L311.02 1.20Q310.88 0.95 310.17 1.18L310.17 1.18Q309.90 1.27 309.72 1.39L309.72 1.39Q309.52 1.51 309.56 1.59L309.56 1.59Z"></path></g></svg>