<svg data-v-fde0c5aa="" xmlns="http://www.w3.org/2000/svg" viewBox="0 0 300 300" class="font"><!----><defs data-v-fde0c5aa=""><!----></defs><rect data-v-fde0c5aa="" fill="transparent" x="0" y="0" width="300px" height="300px" class="logo-background-square"></rect><defs data-v-fde0c5aa=""><linearGradient data-v-fde0c5aa="" gradientTransform="rotate(25)" id="023707f0-150e-44b8-84cc-5637c606a1b3" x1="0%" y1="0%" x2="100%" y2="0%"><stop data-v-fde0c5aa="" offset="0%" stop-color="#20484F" stop-opacity="1"></stop><stop data-v-fde0c5aa="" offset="100%" stop-color="#4E9BAB" stop-opacity="1"></stop></linearGradient></defs><g data-v-fde0c5aa="" id="5c54b652-2add-44fc-8816-41234abed409" fill="url(#023707f0-150e-44b8-84cc-5637c606a1b3)" transform="matrix(6.257110379828193,0,0,6.257110379828193,33.61774753192015,114.30318538750696)"><path d="M6.23 3.61L6.23 3.61Q6.23 3.02 5.78 2.81Q5.32 2.59 4.26 2.59L4.26 2.59L4.26 4.73Q4.91 4.73 5.33 4.63Q5.74 4.54 5.99 4.29Q6.23 4.05 6.23 3.61ZM6.41 7.35L6.41 7.35Q6.41 6.89 6.17 6.64Q5.94 6.38 5.49 6.28Q5.04 6.17 4.26 6.17L4.26 6.17L4.26 8.60Q5.35 8.60 5.88 8.32Q6.41 8.05 6.41 7.35ZM8.13 5.52L8.13 5.52Q9.44 6.29 9.44 7.57L9.44 7.57Q9.44 8.13 9.22 8.64Q9.00 9.16 8.58 9.58Q8.15 10.00 7.45 10.24Q6.75 10.49 5.87 10.49L5.87 10.49L2.62 10.49Q1.76 10.49 1.39 10.05Q1.02 9.62 1.02 8.50L1.02 8.50L1.02 2.58Q1.02 2.10 1.19 1.74Q1.36 1.37 1.73 1.15Q2.10 0.92 2.62 0.92L2.62 0.92L5.82 0.92Q7.22 0.94 8.15 1.69Q9.09 2.44 9.09 3.61L9.09 3.61Q9.09 3.99 9.02 4.28Q8.96 4.56 8.83 4.79Q8.71 5.01 8.54 5.18Q8.37 5.35 8.13 5.52ZM10.86 1.88L10.86 1.88Q10.86 1.41 11.26 1.11Q11.66 0.81 12.39 0.81L12.39 0.81Q13.92 0.81 13.92 1.88L13.92 1.88Q13.92 2.46 13.53 2.70Q13.15 2.94 12.39 2.94L12.39 2.94Q11.73 2.94 11.30 2.69Q10.86 2.44 10.86 1.88ZM13.90 5.36L13.90 9.00Q13.90 9.84 13.55 10.17Q13.20 10.50 12.32 10.50L12.32 10.50Q11.49 10.50 11.19 10.12Q10.89 9.73 10.89 8.85L10.89 8.85L10.89 5.40Q10.89 4.69 11.28 4.26Q11.66 3.82 12.31 3.82L12.31 3.82Q13.06 3.82 13.48 4.15Q13.90 4.48 13.90 5.36L13.90 5.36ZM15.88 7.50L15.88 7.50L15.88 5.85Q15.53 5.84 15.32 5.73Q15.11 5.63 15.02 5.46Q14.92 5.29 14.92 5.04L14.92 5.04Q14.92 4.24 15.89 4.17L15.89 4.17L15.89 2.87Q15.89 2.34 16.66 1.91Q17.43 1.48 18.19 1.48L18.19 1.48Q18.65 1.48 18.79 1.75Q18.93 2.02 18.93 2.55L18.93 2.55L18.94 4.16L19.32 4.16Q20.09 4.16 20.38 4.36Q20.66 4.56 20.66 5.10L20.66 5.10Q20.66 5.32 20.58 5.47Q20.50 5.63 20.31 5.71Q20.12 5.80 19.85 5.83Q19.59 5.87 19.19 5.87L19.19 5.87L18.94 5.87L18.94 7.41Q18.94 7.63 18.96 7.78Q18.98 7.92 19.03 8.01Q19.07 8.09 19.14 8.12Q19.22 8.15 19.33 8.15L19.33 8.15Q19.50 8.15 19.61 8.03Q19.73 7.91 19.79 7.76Q19.85 7.62 19.96 7.50Q20.06 7.38 20.20 7.38L20.20 7.38Q20.52 7.38 20.70 7.53Q20.87 7.69 20.87 7.91L20.87 7.91Q20.87 8.29 20.73 8.72Q20.58 9.16 20.30 9.56Q20.02 9.97 19.52 10.23Q19.03 10.50 18.41 10.50L18.41 10.50Q17.02 10.50 16.45 9.80Q15.88 9.10 15.88 7.50ZM25.20 6.19L25.20 9.00Q25.20 9.84 24.85 10.17Q24.50 10.50 23.60 10.50L23.60 10.50Q22.78 10.50 22.48 10.12Q22.19 9.73 22.19 8.85L22.19 8.85L22.19 5.40Q22.19 4.93 22.36 4.57Q22.53 4.21 22.85 4.02Q23.17 3.82 23.60 3.82L23.60 3.82Q24.67 3.82 25.00 4.44L25.00 4.44Q25.82 3.82 26.57 3.82L26.57 3.82Q28.04 3.82 28.04 5.22L28.04 5.22Q28.04 5.78 27.72 6.13Q27.40 6.48 26.88 6.48L26.88 6.48Q26.57 6.48 26.38 6.36Q26.19 6.23 26.03 6.10Q25.87 5.98 25.66 5.98L25.66 5.98Q25.35 5.98 25.20 6.19L25.20 6.19ZM33.04 7.18L33.04 7.18Q33.04 6.45 32.86 5.90Q32.68 5.35 32.33 5.35L32.33 5.35Q32.09 5.35 31.91 5.63Q31.72 5.91 31.64 6.31Q31.56 6.72 31.56 7.18L31.56 7.18Q31.56 7.90 31.75 8.44Q31.95 8.97 32.31 8.97Q32.68 8.97 32.86 8.44Q33.04 7.91 33.04 7.18ZM32.31 10.60L32.31 10.60Q31.22 10.60 30.34 10.21Q29.47 9.81 28.95 9.03Q28.42 8.25 28.42 7.20L28.42 7.20Q28.42 5.60 29.51 4.66Q30.60 3.72 32.31 3.72Q34.02 3.72 35.10 4.66Q36.18 5.60 36.18 7.20L36.18 7.20Q36.18 8.78 35.08 9.69Q33.98 10.60 32.31 10.60Z"></path></g><!----><!----></svg>